<mxfile host="app.diagrams.net" modified="2021-03-10T16:08:46.803Z" agent="5.0 (Windows NT 10.0; Win64; x64) AppleWebKit/537.36 (KHTML, like Gecko) Chrome/88.0.4324.190 Safari/537.36" etag="yDszgyXx-_S8pRldbvLq" version="13.10.3" type="github">
  <diagram id="-1gLhYkJUVP5Y2Xps8Lw" name="Page-1">
    <mxGraphModel dx="1422" dy="737" grid="1" gridSize="10" guides="1" tooltips="1" connect="1" arrows="1" fold="1" page="1" pageScale="1" pageWidth="850" pageHeight="1100" math="0" shadow="0">
      <root>
        <mxCell id="0" />
        <mxCell id="1" parent="0" />
        <mxCell id="OekW9yUTNzJP0FTXdtGg-14" value="BOOK" style="shape=table;startSize=30;container=1;collapsible=1;childLayout=tableLayout;fixedRows=1;rowLines=0;fontStyle=1;align=center;resizeLast=1;" vertex="1" parent="1">
          <mxGeometry x="40" y="400" width="180" height="220" as="geometry" />
        </mxCell>
        <mxCell id="OekW9yUTNzJP0FTXdtGg-15" value="" style="shape=partialRectangle;collapsible=0;dropTarget=0;pointerEvents=0;fillColor=none;top=0;left=0;bottom=1;right=0;points=[[0,0.5],[1,0.5]];portConstraint=eastwest;" vertex="1" parent="OekW9yUTNzJP0FTXdtGg-14">
          <mxGeometry y="30" width="180" height="30" as="geometry" />
        </mxCell>
        <mxCell id="OekW9yUTNzJP0FTXdtGg-16" value="PK" style="shape=partialRectangle;connectable=0;fillColor=none;top=0;left=0;bottom=0;right=0;fontStyle=1;overflow=hidden;" vertex="1" parent="OekW9yUTNzJP0FTXdtGg-15">
          <mxGeometry width="30" height="30" as="geometry" />
        </mxCell>
        <mxCell id="OekW9yUTNzJP0FTXdtGg-17" value="Book_Num" style="shape=partialRectangle;connectable=0;fillColor=none;top=0;left=0;bottom=0;right=0;align=left;spacingLeft=6;fontStyle=5;overflow=hidden;" vertex="1" parent="OekW9yUTNzJP0FTXdtGg-15">
          <mxGeometry x="30" width="150" height="30" as="geometry" />
        </mxCell>
        <mxCell id="OekW9yUTNzJP0FTXdtGg-18" value="" style="shape=partialRectangle;collapsible=0;dropTarget=0;pointerEvents=0;fillColor=none;top=0;left=0;bottom=0;right=0;points=[[0,0.5],[1,0.5]];portConstraint=eastwest;" vertex="1" parent="OekW9yUTNzJP0FTXdtGg-14">
          <mxGeometry y="60" width="180" height="30" as="geometry" />
        </mxCell>
        <mxCell id="OekW9yUTNzJP0FTXdtGg-19" value="" style="shape=partialRectangle;connectable=0;fillColor=none;top=0;left=0;bottom=0;right=0;editable=1;overflow=hidden;" vertex="1" parent="OekW9yUTNzJP0FTXdtGg-18">
          <mxGeometry width="30" height="30" as="geometry" />
        </mxCell>
        <mxCell id="OekW9yUTNzJP0FTXdtGg-20" value="Book_Title" style="shape=partialRectangle;connectable=0;fillColor=none;top=0;left=0;bottom=0;right=0;align=left;spacingLeft=6;overflow=hidden;" vertex="1" parent="OekW9yUTNzJP0FTXdtGg-18">
          <mxGeometry x="30" width="150" height="30" as="geometry" />
        </mxCell>
        <mxCell id="OekW9yUTNzJP0FTXdtGg-21" value="" style="shape=partialRectangle;collapsible=0;dropTarget=0;pointerEvents=0;fillColor=none;top=0;left=0;bottom=0;right=0;points=[[0,0.5],[1,0.5]];portConstraint=eastwest;" vertex="1" parent="OekW9yUTNzJP0FTXdtGg-14">
          <mxGeometry y="90" width="180" height="30" as="geometry" />
        </mxCell>
        <mxCell id="OekW9yUTNzJP0FTXdtGg-22" value="" style="shape=partialRectangle;connectable=0;fillColor=none;top=0;left=0;bottom=0;right=0;editable=1;overflow=hidden;" vertex="1" parent="OekW9yUTNzJP0FTXdtGg-21">
          <mxGeometry width="30" height="30" as="geometry" />
        </mxCell>
        <mxCell id="OekW9yUTNzJP0FTXdtGg-23" value="Book_Year" style="shape=partialRectangle;connectable=0;fillColor=none;top=0;left=0;bottom=0;right=0;align=left;spacingLeft=6;overflow=hidden;" vertex="1" parent="OekW9yUTNzJP0FTXdtGg-21">
          <mxGeometry x="30" width="150" height="30" as="geometry" />
        </mxCell>
        <mxCell id="OekW9yUTNzJP0FTXdtGg-24" value="" style="shape=partialRectangle;collapsible=0;dropTarget=0;pointerEvents=0;fillColor=none;top=0;left=0;bottom=0;right=0;points=[[0,0.5],[1,0.5]];portConstraint=eastwest;" vertex="1" parent="OekW9yUTNzJP0FTXdtGg-14">
          <mxGeometry y="120" width="180" height="30" as="geometry" />
        </mxCell>
        <mxCell id="OekW9yUTNzJP0FTXdtGg-25" value="" style="shape=partialRectangle;connectable=0;fillColor=none;top=0;left=0;bottom=0;right=0;editable=1;overflow=hidden;" vertex="1" parent="OekW9yUTNzJP0FTXdtGg-24">
          <mxGeometry width="30" height="30" as="geometry" />
        </mxCell>
        <mxCell id="OekW9yUTNzJP0FTXdtGg-26" value="Book_Subject" style="shape=partialRectangle;connectable=0;fillColor=none;top=0;left=0;bottom=0;right=0;align=left;spacingLeft=6;overflow=hidden;" vertex="1" parent="OekW9yUTNzJP0FTXdtGg-24">
          <mxGeometry x="30" width="150" height="30" as="geometry" />
        </mxCell>
        <mxCell id="OekW9yUTNzJP0FTXdtGg-53" value="" style="shape=partialRectangle;collapsible=0;dropTarget=0;pointerEvents=0;fillColor=none;top=0;left=0;bottom=0;right=0;points=[[0,0.5],[1,0.5]];portConstraint=eastwest;" vertex="1" parent="OekW9yUTNzJP0FTXdtGg-14">
          <mxGeometry y="150" width="180" height="30" as="geometry" />
        </mxCell>
        <mxCell id="OekW9yUTNzJP0FTXdtGg-54" value="" style="shape=partialRectangle;connectable=0;fillColor=none;top=0;left=0;bottom=0;right=0;editable=1;overflow=hidden;" vertex="1" parent="OekW9yUTNzJP0FTXdtGg-53">
          <mxGeometry width="30" height="30" as="geometry" />
        </mxCell>
        <mxCell id="OekW9yUTNzJP0FTXdtGg-55" value="Book_Year" style="shape=partialRectangle;connectable=0;fillColor=none;top=0;left=0;bottom=0;right=0;align=left;spacingLeft=6;overflow=hidden;" vertex="1" parent="OekW9yUTNzJP0FTXdtGg-53">
          <mxGeometry x="30" width="150" height="30" as="geometry" />
        </mxCell>
        <mxCell id="OekW9yUTNzJP0FTXdtGg-56" value="" style="shape=partialRectangle;collapsible=0;dropTarget=0;pointerEvents=0;fillColor=none;top=0;left=0;bottom=0;right=0;points=[[0,0.5],[1,0.5]];portConstraint=eastwest;" vertex="1" parent="OekW9yUTNzJP0FTXdtGg-14">
          <mxGeometry y="180" width="180" height="30" as="geometry" />
        </mxCell>
        <mxCell id="OekW9yUTNzJP0FTXdtGg-57" value="FK" style="shape=partialRectangle;connectable=0;fillColor=none;top=0;left=0;bottom=0;right=0;editable=1;overflow=hidden;" vertex="1" parent="OekW9yUTNzJP0FTXdtGg-56">
          <mxGeometry width="30" height="30" as="geometry" />
        </mxCell>
        <mxCell id="OekW9yUTNzJP0FTXdtGg-58" value="Client_ID" style="shape=partialRectangle;connectable=0;fillColor=none;top=0;left=0;bottom=0;right=0;align=left;spacingLeft=6;overflow=hidden;" vertex="1" parent="OekW9yUTNzJP0FTXdtGg-56">
          <mxGeometry x="30" width="150" height="30" as="geometry" />
        </mxCell>
        <mxCell id="OekW9yUTNzJP0FTXdtGg-27" value="AUTHOR" style="shape=table;startSize=30;container=1;collapsible=1;childLayout=tableLayout;fixedRows=1;rowLines=0;fontStyle=1;align=center;resizeLast=1;" vertex="1" parent="1">
          <mxGeometry x="460" y="400" width="180" height="160" as="geometry" />
        </mxCell>
        <mxCell id="OekW9yUTNzJP0FTXdtGg-28" value="" style="shape=partialRectangle;collapsible=0;dropTarget=0;pointerEvents=0;fillColor=none;top=0;left=0;bottom=1;right=0;points=[[0,0.5],[1,0.5]];portConstraint=eastwest;" vertex="1" parent="OekW9yUTNzJP0FTXdtGg-27">
          <mxGeometry y="30" width="180" height="30" as="geometry" />
        </mxCell>
        <mxCell id="OekW9yUTNzJP0FTXdtGg-29" value="PK" style="shape=partialRectangle;connectable=0;fillColor=none;top=0;left=0;bottom=0;right=0;fontStyle=1;overflow=hidden;" vertex="1" parent="OekW9yUTNzJP0FTXdtGg-28">
          <mxGeometry width="30" height="30" as="geometry" />
        </mxCell>
        <mxCell id="OekW9yUTNzJP0FTXdtGg-30" value="Author_ID" style="shape=partialRectangle;connectable=0;fillColor=none;top=0;left=0;bottom=0;right=0;align=left;spacingLeft=6;fontStyle=5;overflow=hidden;" vertex="1" parent="OekW9yUTNzJP0FTXdtGg-28">
          <mxGeometry x="30" width="150" height="30" as="geometry" />
        </mxCell>
        <mxCell id="OekW9yUTNzJP0FTXdtGg-31" value="" style="shape=partialRectangle;collapsible=0;dropTarget=0;pointerEvents=0;fillColor=none;top=0;left=0;bottom=0;right=0;points=[[0,0.5],[1,0.5]];portConstraint=eastwest;" vertex="1" parent="OekW9yUTNzJP0FTXdtGg-27">
          <mxGeometry y="60" width="180" height="30" as="geometry" />
        </mxCell>
        <mxCell id="OekW9yUTNzJP0FTXdtGg-32" value="" style="shape=partialRectangle;connectable=0;fillColor=none;top=0;left=0;bottom=0;right=0;editable=1;overflow=hidden;" vertex="1" parent="OekW9yUTNzJP0FTXdtGg-31">
          <mxGeometry width="30" height="30" as="geometry" />
        </mxCell>
        <mxCell id="OekW9yUTNzJP0FTXdtGg-33" value="Author_FName" style="shape=partialRectangle;connectable=0;fillColor=none;top=0;left=0;bottom=0;right=0;align=left;spacingLeft=6;overflow=hidden;" vertex="1" parent="OekW9yUTNzJP0FTXdtGg-31">
          <mxGeometry x="30" width="150" height="30" as="geometry" />
        </mxCell>
        <mxCell id="OekW9yUTNzJP0FTXdtGg-34" value="" style="shape=partialRectangle;collapsible=0;dropTarget=0;pointerEvents=0;fillColor=none;top=0;left=0;bottom=0;right=0;points=[[0,0.5],[1,0.5]];portConstraint=eastwest;" vertex="1" parent="OekW9yUTNzJP0FTXdtGg-27">
          <mxGeometry y="90" width="180" height="30" as="geometry" />
        </mxCell>
        <mxCell id="OekW9yUTNzJP0FTXdtGg-35" value="" style="shape=partialRectangle;connectable=0;fillColor=none;top=0;left=0;bottom=0;right=0;editable=1;overflow=hidden;" vertex="1" parent="OekW9yUTNzJP0FTXdtGg-34">
          <mxGeometry width="30" height="30" as="geometry" />
        </mxCell>
        <mxCell id="OekW9yUTNzJP0FTXdtGg-36" value="Author_LName" style="shape=partialRectangle;connectable=0;fillColor=none;top=0;left=0;bottom=0;right=0;align=left;spacingLeft=6;overflow=hidden;" vertex="1" parent="OekW9yUTNzJP0FTXdtGg-34">
          <mxGeometry x="30" width="150" height="30" as="geometry" />
        </mxCell>
        <mxCell id="OekW9yUTNzJP0FTXdtGg-37" value="" style="shape=partialRectangle;collapsible=0;dropTarget=0;pointerEvents=0;fillColor=none;top=0;left=0;bottom=0;right=0;points=[[0,0.5],[1,0.5]];portConstraint=eastwest;" vertex="1" parent="OekW9yUTNzJP0FTXdtGg-27">
          <mxGeometry y="120" width="180" height="30" as="geometry" />
        </mxCell>
        <mxCell id="OekW9yUTNzJP0FTXdtGg-38" value="" style="shape=partialRectangle;connectable=0;fillColor=none;top=0;left=0;bottom=0;right=0;editable=1;overflow=hidden;" vertex="1" parent="OekW9yUTNzJP0FTXdtGg-37">
          <mxGeometry width="30" height="30" as="geometry" />
        </mxCell>
        <mxCell id="OekW9yUTNzJP0FTXdtGg-39" value="Author_BirthYear" style="shape=partialRectangle;connectable=0;fillColor=none;top=0;left=0;bottom=0;right=0;align=left;spacingLeft=6;overflow=hidden;" vertex="1" parent="OekW9yUTNzJP0FTXdtGg-37">
          <mxGeometry x="30" width="150" height="30" as="geometry" />
        </mxCell>
        <mxCell id="OekW9yUTNzJP0FTXdtGg-40" value="CLIENT" style="shape=table;startSize=30;container=1;collapsible=1;childLayout=tableLayout;fixedRows=1;rowLines=0;fontStyle=1;align=center;resizeLast=1;" vertex="1" parent="1">
          <mxGeometry x="40" y="760" width="180" height="160" as="geometry" />
        </mxCell>
        <mxCell id="OekW9yUTNzJP0FTXdtGg-41" value="" style="shape=partialRectangle;collapsible=0;dropTarget=0;pointerEvents=0;fillColor=none;top=0;left=0;bottom=1;right=0;points=[[0,0.5],[1,0.5]];portConstraint=eastwest;" vertex="1" parent="OekW9yUTNzJP0FTXdtGg-40">
          <mxGeometry y="30" width="180" height="30" as="geometry" />
        </mxCell>
        <mxCell id="OekW9yUTNzJP0FTXdtGg-42" value="PK" style="shape=partialRectangle;connectable=0;fillColor=none;top=0;left=0;bottom=0;right=0;fontStyle=1;overflow=hidden;" vertex="1" parent="OekW9yUTNzJP0FTXdtGg-41">
          <mxGeometry width="30" height="30" as="geometry" />
        </mxCell>
        <mxCell id="OekW9yUTNzJP0FTXdtGg-43" value="Client_ID" style="shape=partialRectangle;connectable=0;fillColor=none;top=0;left=0;bottom=0;right=0;align=left;spacingLeft=6;fontStyle=5;overflow=hidden;" vertex="1" parent="OekW9yUTNzJP0FTXdtGg-41">
          <mxGeometry x="30" width="150" height="30" as="geometry" />
        </mxCell>
        <mxCell id="OekW9yUTNzJP0FTXdtGg-44" value="" style="shape=partialRectangle;collapsible=0;dropTarget=0;pointerEvents=0;fillColor=none;top=0;left=0;bottom=0;right=0;points=[[0,0.5],[1,0.5]];portConstraint=eastwest;" vertex="1" parent="OekW9yUTNzJP0FTXdtGg-40">
          <mxGeometry y="60" width="180" height="30" as="geometry" />
        </mxCell>
        <mxCell id="OekW9yUTNzJP0FTXdtGg-45" value="" style="shape=partialRectangle;connectable=0;fillColor=none;top=0;left=0;bottom=0;right=0;editable=1;overflow=hidden;" vertex="1" parent="OekW9yUTNzJP0FTXdtGg-44">
          <mxGeometry width="30" height="30" as="geometry" />
        </mxCell>
        <mxCell id="OekW9yUTNzJP0FTXdtGg-46" value="Client_FName" style="shape=partialRectangle;connectable=0;fillColor=none;top=0;left=0;bottom=0;right=0;align=left;spacingLeft=6;overflow=hidden;" vertex="1" parent="OekW9yUTNzJP0FTXdtGg-44">
          <mxGeometry x="30" width="150" height="30" as="geometry" />
        </mxCell>
        <mxCell id="OekW9yUTNzJP0FTXdtGg-47" value="" style="shape=partialRectangle;collapsible=0;dropTarget=0;pointerEvents=0;fillColor=none;top=0;left=0;bottom=0;right=0;points=[[0,0.5],[1,0.5]];portConstraint=eastwest;" vertex="1" parent="OekW9yUTNzJP0FTXdtGg-40">
          <mxGeometry y="90" width="180" height="30" as="geometry" />
        </mxCell>
        <mxCell id="OekW9yUTNzJP0FTXdtGg-48" value="" style="shape=partialRectangle;connectable=0;fillColor=none;top=0;left=0;bottom=0;right=0;editable=1;overflow=hidden;" vertex="1" parent="OekW9yUTNzJP0FTXdtGg-47">
          <mxGeometry width="30" height="30" as="geometry" />
        </mxCell>
        <mxCell id="OekW9yUTNzJP0FTXdtGg-49" value="Client_LName" style="shape=partialRectangle;connectable=0;fillColor=none;top=0;left=0;bottom=0;right=0;align=left;spacingLeft=6;overflow=hidden;" vertex="1" parent="OekW9yUTNzJP0FTXdtGg-47">
          <mxGeometry x="30" width="150" height="30" as="geometry" />
        </mxCell>
        <mxCell id="OekW9yUTNzJP0FTXdtGg-50" value="" style="shape=partialRectangle;collapsible=0;dropTarget=0;pointerEvents=0;fillColor=none;top=0;left=0;bottom=0;right=0;points=[[0,0.5],[1,0.5]];portConstraint=eastwest;" vertex="1" parent="OekW9yUTNzJP0FTXdtGg-40">
          <mxGeometry y="120" width="180" height="30" as="geometry" />
        </mxCell>
        <mxCell id="OekW9yUTNzJP0FTXdtGg-51" value="" style="shape=partialRectangle;connectable=0;fillColor=none;top=0;left=0;bottom=0;right=0;editable=1;overflow=hidden;" vertex="1" parent="OekW9yUTNzJP0FTXdtGg-50">
          <mxGeometry width="30" height="30" as="geometry" />
        </mxCell>
        <mxCell id="OekW9yUTNzJP0FTXdtGg-52" value="Client_Type" style="shape=partialRectangle;connectable=0;fillColor=none;top=0;left=0;bottom=0;right=0;align=left;spacingLeft=6;overflow=hidden;" vertex="1" parent="OekW9yUTNzJP0FTXdtGg-50">
          <mxGeometry x="30" width="150" height="30" as="geometry" />
        </mxCell>
        <mxCell id="OekW9yUTNzJP0FTXdtGg-74" value="" style="edgeStyle=entityRelationEdgeStyle;fontSize=12;html=1;endArrow=ERoneToMany;startArrow=ERoneToMany;exitX=1;exitY=0.5;exitDx=0;exitDy=0;entryX=0;entryY=0.5;entryDx=0;entryDy=0;" edge="1" parent="1" source="OekW9yUTNzJP0FTXdtGg-15" target="OekW9yUTNzJP0FTXdtGg-28">
          <mxGeometry width="100" height="100" relative="1" as="geometry">
            <mxPoint x="220" y="445" as="sourcePoint" />
            <mxPoint x="460" y="445" as="targetPoint" />
          </mxGeometry>
        </mxCell>
        <mxCell id="OekW9yUTNzJP0FTXdtGg-79" value="HAS&amp;nbsp;" style="edgeLabel;html=1;align=center;verticalAlign=middle;resizable=0;points=[];" vertex="1" connectable="0" parent="OekW9yUTNzJP0FTXdtGg-74">
          <mxGeometry y="-3" relative="1" as="geometry">
            <mxPoint y="-8" as="offset" />
          </mxGeometry>
        </mxCell>
        <mxCell id="OekW9yUTNzJP0FTXdtGg-81" value="CheckOut" style="fontSize=12;html=1;endArrow=ERoneToMany;startArrow=ERoneToMany;exitX=0.5;exitY=0;exitDx=0;exitDy=0;" edge="1" parent="1" source="OekW9yUTNzJP0FTXdtGg-40">
          <mxGeometry width="100" height="100" relative="1" as="geometry">
            <mxPoint x="150" y="710" as="sourcePoint" />
            <mxPoint x="130" y="620" as="targetPoint" />
            <Array as="points">
              <mxPoint x="130" y="680" />
            </Array>
          </mxGeometry>
        </mxCell>
        <mxCell id="OekW9yUTNzJP0FTXdtGg-83" value="The ERD has 3 Entity, relationship has and checkout." style="text;html=1;align=center;verticalAlign=middle;resizable=0;points=[];autosize=1;" vertex="1" parent="1">
          <mxGeometry x="190" y="320" width="300" height="20" as="geometry" />
        </mxCell>
      </root>
    </mxGraphModel>
  </diagram>
</mxfile>
